<svg width="85" height="72" version="1.1" xmlns="http://www.w3.org/2000/svg" desc="Created with imagetracer.js version 1.2.6" ><path fill="rgb(39,69,157)" stroke="rgb(39,69,157)" stroke-width="1" opacity="0.996078431372549" d="M 0.5 1 Q 7.3 -0.7 9 2.5 L 20.5 20 L 21 1 L 28 1.5 L 27 2.5 L 27 29.5 L 27.5 31 Q 20.7 32.8 19 29.5 L 7.5 12 L 7 31 L 0 30.5 L 1 29.5 L 1 2.5 L 0.5 1 Z " /><path fill="rgb(39,69,157)" stroke="rgb(39,69,157)" stroke-width="1" opacity="0.996078431372549" d="M 40.5 7 L 48.5 7 L 54 10 Q 56.9 13.2 56 20 L 39.5 20 L 39 22.5 L 40 25 L 46.5 26 Q 48.4 22.3 55 24 L 52.5 29 Q 48.5 32.5 39.5 31 L 34 26.5 L 32 18.5 L 33 13.5 L 36.5 9 L 40.5 7 Z M 43 12 L 39 17 L 49 17 L 49 15 Q 48 11 43 12 Z " /><path fill="rgb(39,69,157)" stroke="rgb(39,69,157)" stroke-width="1" opacity="0.996078431372549" d="M 68.5 7 Q 79.8 5.7 83 12.5 Q 85.5 16 84 23.5 L 80.5 29 Q 76.5 32.5 67.5 31 L 61 25.5 Q 58.5 22 60 14.5 L 65.5 8 L 68.5 7 Z M 72 12 L 70 13 L 66 19 L 67 23 Q 68 27 74 26 L 78 21 L 77 16 L 72 12 Z " /><path fill="rgb(39,69,157)" stroke="rgb(39,69,157)" stroke-width="1" opacity="0.996078431372549" d="M 68 47 L 76 47 L 76 55 L 68 55 L 68 47 Z " /><path fill="rgb(39,69,157)" stroke="rgb(39,69,157)" stroke-width="1" opacity="0.996078431372549" d="M 77 56 L 85 56.5 L 84 61.5 L 84.5 63 L 77 63 L 77 56 Z " /><path fill="rgb(39,69,157)" stroke="rgb(39,69,157)" stroke-width="1" opacity="0.996078431372549" d="M 69.5 63 L 76 63 L 76 71 L 68 71 L 68 64.5 L 69.5 63 Z " /><path fill="rgb(40,70,156)" stroke="rgb(40,70,156)" stroke-width="1" opacity="0.1803921568627451" d="M 28.5 0 L 29 31.5 L 28 31.5 L 28.5 0 Z " /><path fill="rgb(40,70,156)" stroke="rgb(40,70,156)" stroke-width="1" opacity="0.1803921568627451" d="M 37.5 7 L 36.5 9 L 37.5 7 Z " /><path fill="rgb(40,70,156)" stroke="rgb(40,70,156)" stroke-width="1" opacity="0.1803921568627451" d="M 52.5 8 L 54.5 11 L 52.5 8 Z " /><path fill="rgb(40,70,156)" stroke="rgb(40,70,156)" stroke-width="1" opacity="0.1803921568627451" d="M 63.5 8 L 61.5 11 L 63.5 8 Z " /><path fill="rgb(40,70,156)" stroke="rgb(40,70,156)" stroke-width="1" opacity="0.1803921568627451" d="M 80.5 8 L 82.5 11 L 80.5 8 Z " /><path fill="rgb(40,70,156)" stroke="rgb(40,70,156)" stroke-width="1" opacity="0.1803921568627451" d="M 14.5 10 L 15.5 12 L 14.5 10 Z " /><path fill="rgb(40,70,156)" stroke="rgb(40,70,156)" stroke-width="1" opacity="0.1803921568627451" d="M 34.5 10 L 33.5 12 L 34.5 10 Z " /><path fill="rgb(40,70,156)" stroke="rgb(40,70,156)" stroke-width="1" opacity="0.1803921568627451" d="M 55.5 12 L 57 14.5 L 56 14.5 L 55.5 12 Z " /><path fill="rgb(40,70,156)" stroke="rgb(40,70,156)" stroke-width="1" opacity="0.1803921568627451" d="M 83.5 12 L 85 14.5 L 84 14.5 L 83.5 12 Z " /><path fill="rgb(40,70,156)" stroke="rgb(40,70,156)" stroke-width="1" opacity="0.1803921568627451" d="M 16.5 13 L 17.5 15 L 16.5 13 Z " /><path fill="rgb(40,70,156)" stroke="rgb(40,70,156)" stroke-width="1" opacity="0.1803921568627451" d="M 41.5 13 L 40.5 15 L 41.5 13 Z " /><path fill="rgb(40,70,156)" stroke="rgb(40,70,156)" stroke-width="1" opacity="0.1803921568627451" d="M 70.5 13 L 74 13.5 L 70.5 14 L 70.5 13 Z " /><path fill="rgb(40,70,156)" stroke="rgb(40,70,156)" stroke-width="1" opacity="0.1803921568627451" d="M 8.5 14 L 9.5 16 L 8.5 14 Z " /><path fill="rgb(40,70,156)" stroke="rgb(40,70,156)" stroke-width="1" opacity="0.1803921568627451" d="M 48.5 15 L 49 17 L 40 16.5 L 48.5 15 Z " /><path fill="rgb(40,70,156)" stroke="rgb(40,70,156)" stroke-width="1" opacity="0.1803921568627451" d="M 18.5 16 L 19.5 18 L 18.5 16 Z " /><path fill="rgb(40,70,156)" stroke="rgb(40,70,156)" stroke-width="1" opacity="0.1803921568627451" d="M 31.5 16 L 32 21.5 L 31 21.5 L 31.5 16 Z " /><path fill="rgb(40,70,156)" stroke="rgb(40,70,156)" stroke-width="1" opacity="0.1803921568627451" d="M 67.5 16 L 68 21.5 L 67 21.5 L 67.5 16 Z " /><path fill="rgb(40,70,156)" stroke="rgb(40,70,156)" stroke-width="1" opacity="0.1803921568627451" d="M 10.5 17 L 11.5 19 L 10.5 17 Z " /><path fill="rgb(40,70,156)" stroke="rgb(40,70,156)" stroke-width="1" opacity="0.1803921568627451" d="M 12.5 20 L 13.5 22 L 12.5 20 Z " /><path fill="rgb(40,70,156)" stroke="rgb(40,70,156)" stroke-width="1" opacity="0.1803921568627451" d="M 40.5 21 L 57 21.5 L 40.5 22 L 40.5 21 Z " /><path fill="rgb(40,70,156)" stroke="rgb(40,70,156)" stroke-width="1" opacity="0.1803921568627451" d="M 14.5 23 L 15.5 25 L 14.5 23 Z " /><path fill="rgb(40,70,156)" stroke="rgb(40,70,156)" stroke-width="1" opacity="0.1803921568627451" d="M 40.5 23 L 41.5 25 L 40.5 23 Z " /><path fill="rgb(40,70,156)" stroke="rgb(40,70,156)" stroke-width="1" opacity="0.1803921568627451" d="M 47.5 23 L 46.5 25 L 47.5 23 Z " /><path fill="rgb(40,70,156)" stroke="rgb(40,70,156)" stroke-width="1" opacity="0.1803921568627451" d="M 56.5 23 L 57 24.5 L 55 25.5 L 56.5 23 Z " /><path fill="rgb(40,70,156)" stroke="rgb(40,70,156)" stroke-width="1" opacity="0.1803921568627451" d="M 59.5 23 L 61 25.5 L 59 24.5 L 59.5 23 Z " /><path fill="rgb(40,70,156)" stroke="rgb(40,70,156)" stroke-width="1" opacity="0.1803921568627451" d="M 16.5 26 L 17.5 28 L 16.5 26 Z " /><path fill="rgb(40,70,156)" stroke="rgb(40,70,156)" stroke-width="1" opacity="0.1803921568627451" d="M 83.5 26 L 79.5 31 L 83.5 26 Z " /><path fill="rgb(40,70,156)" stroke="rgb(40,70,156)" stroke-width="1" opacity="0.1803921568627451" d="M 54.5 27 L 51.5 31 L 54.5 27 Z " /><path fill="rgb(40,70,156)" stroke="rgb(40,70,156)" stroke-width="1" opacity="0.1803921568627451" d="M 61.5 27 L 63.5 30 L 61.5 27 Z " /><path fill="rgb(40,70,156)" stroke="rgb(40,70,156)" stroke-width="1" opacity="0.1803921568627451" d="M 65.5 30 L 68 31.5 L 66.5 32 L 65.5 30 Z " /><path fill="rgb(40,70,156)" stroke="rgb(40,70,156)" stroke-width="1" opacity="0.1803921568627451" d="M 43.5 32 L 46 32.5 L 43.5 33 L 43.5 32 Z " /><path fill="rgb(40,70,156)" stroke="rgb(40,70,156)" stroke-width="1" opacity="0.1803921568627451" d="M 71.5 32 L 74 32.5 L 71.5 33 L 71.5 32 Z " /><path fill="rgb(40,70,156)" stroke="rgb(40,70,156)" stroke-width="1" opacity="0.1803921568627451" d="M 68.5 46 L 77 46.5 L 68.5 47 L 68.5 46 Z " /><path fill="rgb(39,69,157)" stroke="rgb(39,69,157)" stroke-width="1" opacity="0.9137254901960784" d="M 41.5 20 L 56 20.5 L 41.5 21 L 41.5 20 Z " /><path fill="rgb(39,69,157)" stroke="rgb(39,69,157)" stroke-width="1" opacity="0.9137254901960784" d="M 62.5 27 L 63.5 29 L 62.5 27 Z " /><path fill="rgb(39,69,157)" stroke="rgb(39,69,157)" stroke-width="1" opacity="0.6549019607843137" d="M 2.5 0 L 6 0.5 L 2.5 1 L 2.5 0 Z " /><path fill="rgb(39,69,157)" stroke="rgb(39,69,157)" stroke-width="1" opacity="0.6549019607843137" d="M 7.5 0 L 8.5 2 L 7.5 0 Z " /><path fill="rgb(39,69,157)" stroke="rgb(39,69,157)" stroke-width="1" opacity="0.6549019607843137" d="M 22.5 0 L 26 0.5 L 22.5 1 L 22.5 0 Z " /><path fill="rgb(39,69,157)" stroke="rgb(39,69,157)" stroke-width="1" opacity="0.6549019607843137" d="M 20.5 2 L 21 19 L 19 18.5 L 20 17.5 L 20.5 2 Z " /><path fill="rgb(39,69,157)" stroke="rgb(39,69,157)" stroke-width="1" opacity="0.6549019607843137" d="M 41.5 6 L 47 6.5 L 41.5 7 L 41.5 6 Z " /><path fill="rgb(39,69,157)" stroke="rgb(39,69,157)" stroke-width="1" opacity="0.6549019607843137" d="M 69.5 6 L 75 6.5 L 69.5 7 L 69.5 6 Z " /><path fill="rgb(39,69,157)" stroke="rgb(39,69,157)" stroke-width="1" opacity="0.6549019607843137" d="M 43.5 12 L 46 12.5 L 43.5 13 L 43.5 12 Z " /><path fill="rgb(39,69,157)" stroke="rgb(39,69,157)" stroke-width="1" opacity="0.6549019607843137" d="M 7 13 L 9 13.5 L 8 14.5 L 7.5 30 L 7 13 Z " /><path fill="rgb(39,69,157)" stroke="rgb(39,69,157)" stroke-width="1" opacity="0.6549019607843137" d="M 47.5 13 L 48.5 15 L 47.5 13 Z " /><path fill="rgb(39,69,157)" stroke="rgb(39,69,157)" stroke-width="1" opacity="0.6549019607843137" d="M 69.5 13 L 68.5 15 L 69.5 13 Z " /><path fill="rgb(39,69,157)" stroke="rgb(39,69,157)" stroke-width="1" opacity="0.6549019607843137" d="M 56.5 15 L 57 18.5 L 56 18.5 L 56.5 15 Z " /><path fill="rgb(39,69,157)" stroke="rgb(39,69,157)" stroke-width="1" opacity="0.6549019607843137" d="M 59.5 15 L 60 17.5 L 59 17.5 L 59.5 15 Z " /><path fill="rgb(39,69,157)" stroke="rgb(39,69,157)" stroke-width="1" opacity="0.6549019607843137" d="M 34.5 27 L 36.5 30 L 34.5 27 Z " /><path fill="rgb(39,69,157)" stroke="rgb(39,69,157)" stroke-width="1" opacity="0.6549019607843137" d="M 19.5 30 L 28 31.5 L 20.5 32 L 19.5 30 Z " /><path fill="rgb(39,69,157)" stroke="rgb(39,69,157)" stroke-width="1" opacity="0.6549019607843137" d="M 0.5 31 L 7 31.5 L 0.5 32 L 0.5 31 Z " /><path fill="rgb(39,69,157)" stroke="rgb(39,69,157)" stroke-width="1" opacity="0.6549019607843137" d="M 76.5 47 L 77 54.5 L 76 54.5 L 76.5 47 Z " /><path fill="rgb(39,69,157)" stroke="rgb(39,69,157)" stroke-width="1" opacity="0.6549019607843137" d="M 77.5 63 L 85 63.5 L 77 64 L 76.5 70 L 76 64.5 L 77.5 63 Z " /><path fill="rgb(39,69,157)" stroke="rgb(39,69,157)" stroke-width="1" opacity="0.6549019607843137" d="M 68.5 71 L 75 71.5 L 68.5 72 L 68.5 71 Z " /><path fill="rgb(40,69,156)" stroke="rgb(40,69,156)" stroke-width="1" opacity="0.8784313725490196" d="M 0.5 2 L 1 29.5 L 0 29.5 L 0.5 2 Z " /><path fill="rgb(40,69,156)" stroke="rgb(40,69,156)" stroke-width="1" opacity="0.8784313725490196" d="M 27.5 2 L 28 29.5 L 27 29.5 L 27.5 2 Z " /><path fill="rgb(40,69,156)" stroke="rgb(40,69,156)" stroke-width="1" opacity="0.8784313725490196" d="M 84.5 57 L 85 60.5 L 84 60.5 L 84.5 57 Z " /><path fill="rgb(0,0,0)" stroke="rgb(0,0,0)" stroke-width="1" opacity="0" d="M 9 0 L 20 0 L 20 16.5 L 18 15.5 L 9 0 Z " /><path fill="rgb(0,0,0)" stroke="rgb(0,0,0)" stroke-width="1" opacity="0" d="M 29 0 L 84.5 0 L 85 0.5 L 85 12.5 L 83 11.5 L 80.5 8 Q 76.5 4.5 67.5 6 L 61 10.5 Q 57.3 14.8 59 24.5 L 63.5 30 L 66.5 32 L 73.5 33 Q 80.9 31.9 84 26.5 L 84.5 25 L 85 54.5 L 82.5 55 L 77 55 L 77 46 L 60.5 46 L 59 47.5 L 59 56 L 68 56 L 68 63 L 59 63 L 59 71.5 L 57 72 L 57 65 L 53.5 65 L 52 63.5 L 52 54 L 57 54 L 57 46 L 52 46 L 52 40 L 43 40 L 43 46 L 40 46.5 L 40 54 L 43 54.5 L 43 66.5 L 46.5 71 L 48 71.5 L 38 72 L 38 46 L 29 46 L 29 72 L 20.5 72 L 20.5 71 L 25 67.5 L 26 62.5 L 21 55.5 Q 25.9 53.9 25 46.5 L 20.5 41 L 18.5 40 L 0 40 L 0 32 L 7.5 32 L 8 31.5 L 8 15.5 L 10 16.5 L 20.5 32 L 28.5 32 L 29 31.5 L 29 0 Z M 40 6 L 38 7 Q 33 10 31 17 Q 30 23 33 27 Q 36 32 44 33 L 52 31 L 57 23 L 48 23 L 46 25 Q 41 26 40 23 L 57 22 Q 59 14 55 11 Q 51 4 40 6 Z M 33 35 L 31 36 Q 27 37 28 43 L 32 45 L 37 44 Q 39 43 38 39 L 33 35 Z " /><path fill="rgb(0,0,0)" stroke="rgb(0,0,0)" stroke-width="1" opacity="0" d="M 42.5 13 L 48 14 L 47.5 16 L 40.5 16 L 42.5 13 Z " /><path fill="rgb(0,0,0)" stroke="rgb(0,0,0)" stroke-width="1" opacity="0" d="M 69.5 14 Q 74.8 12.8 76 15.5 L 77 19.5 L 74.5 24 L 71.5 25 L 68 22.5 Q 66.3 15.7 69.5 14 Z " /><path fill="rgb(0,0,0)" stroke="rgb(0,0,0)" stroke-width="1" opacity="0" d="M 8 47 L 16 48 L 14.5 52 L 8 52 L 8 47 Z " /><path fill="rgb(0,0,0)" stroke="rgb(0,0,0)" stroke-width="1" opacity="0" d="M 8 59 Q 15.1 57.2 17 61.5 L 14.5 65 L 8 65 L 8 59 Z " /><path fill="rgb(0,0,0)" stroke="rgb(0,0,0)" stroke-width="1" opacity="0" d="M 77 64 L 85 64 L 85 72 L 77 72 L 77 64 Z " /><path fill="rgb(40,69,157)" stroke="rgb(40,69,157)" stroke-width="1" opacity="0.803921568627451" d="M 21.5 0 L 20.5 2 L 21.5 0 Z " /><path fill="rgb(40,69,157)" stroke="rgb(40,69,157)" stroke-width="1" opacity="0.803921568627451" d="M 63.5 9 L 62.5 11 L 63.5 9 Z " /><path fill="rgb(40,69,157)" stroke="rgb(40,69,157)" stroke-width="1" opacity="0.803921568627451" d="M 59.5 18 L 60 20.5 L 59 20.5 L 59.5 18 Z " /><path fill="rgb(40,69,157)" stroke="rgb(40,69,157)" stroke-width="1" opacity="0.803921568627451" d="M 49.5 23 L 56 23.5 L 49.5 24 L 49.5 23 Z " /><path fill="rgb(40,69,157)" stroke="rgb(40,69,157)" stroke-width="1" opacity="0.803921568627451" d="M 77.5 55 L 85 55.5 L 77.5 56 L 77.5 55 Z " /><path fill="rgb(40,69,157)" stroke="rgb(40,69,157)" stroke-width="1" opacity="0.803921568627451" d="M 76.5 70 L 75.5 72 L 76.5 70 Z " /><path fill="rgb(33,200,246)" stroke="rgb(33,200,246)" stroke-width="1" opacity="0.996078431372549" d="M 67.5 47 L 68 54.5 L 67 54.5 L 67.5 47 Z " /><path fill="rgb(33,200,246)" stroke="rgb(33,200,246)" stroke-width="1" opacity="0.996078431372549" d="M 69.5 56 L 76 56 L 76 63 L 69 62.5 L 75 62 Q 77.8 54.5 69.5 57 L 69.5 56 Z " /><path fill="rgb(33,200,246)" stroke="rgb(33,200,246)" stroke-width="1" opacity="0.996078431372549" d="M 67.5 64 L 68 70.5 L 67 70.5 L 67.5 64 Z " /><path fill="rgb(29,183,237)" stroke="rgb(29,183,237)" stroke-width="1" opacity="0.1450980392156863" d="M 43.5 40 L 52 40 L 52 46 L 57 46 L 57 54 L 52 54 L 52 63.5 L 52.5 65 L 51 63.5 L 51 54.5 Q 52.2 52 56 53 L 56 47 L 52.5 47 Q 49.8 45.6 51 41 L 43.5 41 L 43.5 40 Z " /><path fill="rgb(29,183,237)" stroke="rgb(29,183,237)" stroke-width="1" opacity="0.1450980392156863" d="M 28.5 41 L 30 43.5 L 28 42.5 L 28.5 41 Z " /><path fill="rgb(29,183,237)" stroke="rgb(29,183,237)" stroke-width="1" opacity="0.1450980392156863" d="M 37.5 42 L 36.5 44 L 37.5 42 Z " /><path fill="rgb(29,183,237)" stroke="rgb(29,183,237)" stroke-width="1" opacity="0.1450980392156863" d="M 24.5 46 L 25 50.5 L 24 50.5 L 24.5 46 Z " /><path fill="rgb(29,183,237)" stroke="rgb(29,183,237)" stroke-width="1" opacity="0.1450980392156863" d="M 29.5 46 L 37.5 46 L 38 46.5 L 38 71.5 L 37 71.5 L 37 47.5 L 36.5 47 L 29.5 47 L 29.5 46 Z " /><path fill="rgb(29,183,237)" stroke="rgb(29,183,237)" stroke-width="1" opacity="0.1450980392156863" d="M 40.5 46 L 43 46.5 L 40.5 47 L 40.5 46 Z " /><path fill="rgb(29,183,237)" stroke="rgb(29,183,237)" stroke-width="1" opacity="0.1450980392156863" d="M 60.5 46 L 68 46.5 L 60 47 L 60 55 L 67.5 55 L 67.5 56 L 59 56 L 59 47.5 L 60.5 46 Z " /><path fill="rgb(29,183,237)" stroke="rgb(29,183,237)" stroke-width="1" opacity="0.1450980392156863" d="M 15.5 51 L 14.5 53 L 8 52.5 L 15.5 51 Z " /><path fill="rgb(29,183,237)" stroke="rgb(29,183,237)" stroke-width="1" opacity="0.1450980392156863" d="M 40.5 53 L 43 53.5 L 40.5 54 L 40.5 53 Z " /><path fill="rgb(29,183,237)" stroke="rgb(29,183,237)" stroke-width="1" opacity="0.1450980392156863" d="M 20.5 55 L 21.5 57 L 20.5 55 Z " /><path fill="rgb(29,183,237)" stroke="rgb(29,183,237)" stroke-width="1" opacity="0.1450980392156863" d="M 15.5 59 L 16.5 61 L 15.5 59 Z " /><path fill="rgb(29,183,237)" stroke="rgb(29,183,237)" stroke-width="1" opacity="0.1450980392156863" d="M 25.5 62 L 26 64.5 L 25 64.5 L 25.5 62 Z " /><path fill="rgb(29,183,237)" stroke="rgb(29,183,237)" stroke-width="1" opacity="0.1450980392156863" d="M 16.5 63 L 15.5 65 L 16.5 63 Z " /><path fill="rgb(29,183,237)" stroke="rgb(29,183,237)" stroke-width="1" opacity="0.1450980392156863" d="M 59.5 63 L 60 71.5 L 59 71.5 L 59.5 63 Z " /><path fill="rgb(29,183,237)" stroke="rgb(29,183,237)" stroke-width="1" opacity="0.1450980392156863" d="M 56.5 65 L 57 71.5 L 56 71.5 L 56.5 65 Z " /><path fill="rgb(29,183,237)" stroke="rgb(29,183,237)" stroke-width="1" opacity="0.1450980392156863" d="M 24.5 67 L 21.5 71 L 24.5 67 Z " /><path fill="rgb(33,184,235)" stroke="rgb(33,184,235)" stroke-width="1" opacity="0.7764705882352941" d="M 36.5 42 L 35.5 44 L 36.5 42 Z " /><path fill="rgb(33,184,235)" stroke="rgb(33,184,235)" stroke-width="1" opacity="0.7764705882352941" d="M 29.5 47 L 30 71 L 36 71.5 L 30.5 72 L 29 70.5 L 29.5 47 Z " /><path fill="rgb(33,184,235)" stroke="rgb(33,184,235)" stroke-width="1" opacity="0.7764705882352941" d="M 7.5 48 L 8 53 L 13 53.5 L 8.5 54 Q 5.6 52.6 7.5 48 Z " /><path fill="rgb(33,184,235)" stroke="rgb(33,184,235)" stroke-width="1" opacity="0.7764705882352941" d="M 60.5 48 L 61 53.5 L 60 53.5 L 60.5 48 Z " /><path fill="rgb(33,184,235)" stroke="rgb(33,184,235)" stroke-width="1" opacity="0.7764705882352941" d="M 19.5 55 L 20.5 57 L 19.5 55 Z " /><path fill="rgb(33,184,235)" stroke="rgb(33,184,235)" stroke-width="1" opacity="0.7764705882352941" d="M 7.5 60 L 8 63.5 L 7 63.5 L 7.5 60 Z " /><path fill="rgb(33,184,235)" stroke="rgb(33,184,235)" stroke-width="1" opacity="0.7764705882352941" d="M 52.5 65 L 56 65.5 L 52.5 66 L 52.5 65 Z " /><path fill="rgb(33,184,235)" stroke="rgb(33,184,235)" stroke-width="1" opacity="0.7764705882352941" d="M 60.5 65 L 61 69.5 L 60 69.5 L 60.5 65 Z " /><path fill="rgb(33,184,235)" stroke="rgb(33,184,235)" stroke-width="1" opacity="0.7764705882352941" d="M 0.5 71 L 17 71.5 L 0.5 72 L 0.5 71 Z " /><path fill="rgb(33,184,235)" stroke="rgb(33,184,235)" stroke-width="1" opacity="0.7764705882352941" d="M 51.5 71 L 56 71.5 L 51.5 72 L 51.5 71 Z " /><path fill="rgb(33,184,235)" stroke="rgb(33,184,235)" stroke-width="1" opacity="0.7764705882352941" d="M 61.5 71 L 68 71.5 L 61.5 72 L 61.5 71 Z " /><path fill="rgb(33,185,236)" stroke="rgb(33,185,236)" stroke-width="1" opacity="0.5411764705882353" d="M 35.5 36 L 36.5 38 L 35.5 36 Z " /><path fill="rgb(33,185,236)" stroke="rgb(33,185,236)" stroke-width="1" opacity="0.5411764705882353" d="M 37.5 39 L 38 41.5 L 37 41.5 L 37.5 39 Z " /><path fill="rgb(33,185,236)" stroke="rgb(33,185,236)" stroke-width="1" opacity="0.5411764705882353" d="M 0.5 40 L 17 40.5 L 0.5 41 L 0.5 40 Z " /><path fill="rgb(33,185,236)" stroke="rgb(33,185,236)" stroke-width="1" opacity="0.5411764705882353" d="M 43.5 41 L 44 46.5 L 43 46.5 L 43.5 41 Z " /><path fill="rgb(33,185,236)" stroke="rgb(33,185,236)" stroke-width="1" opacity="0.5411764705882353" d="M 21.5 42 L 22.5 44 L 21.5 42 Z " /><path fill="rgb(33,185,236)" stroke="rgb(33,185,236)" stroke-width="1" opacity="0.5411764705882353" d="M 8.5 46 L 14 46.5 L 7.5 48 L 8.5 46 Z " /><path fill="rgb(33,185,236)" stroke="rgb(33,185,236)" stroke-width="1" opacity="0.5411764705882353" d="M 40.5 47 L 41 52.5 L 40 52.5 L 40.5 47 Z " /><path fill="rgb(33,185,236)" stroke="rgb(33,185,236)" stroke-width="1" opacity="0.5411764705882353" d="M 22.5 53 L 21.5 55 L 22.5 53 Z " /><path fill="rgb(33,185,236)" stroke="rgb(33,185,236)" stroke-width="1" opacity="0.5411764705882353" d="M 43.5 53 L 44 64.5 L 43 64.5 L 43.5 53 Z " /><path fill="rgb(33,185,236)" stroke="rgb(33,185,236)" stroke-width="1" opacity="0.5411764705882353" d="M 68.5 56 L 69 62.5 Q 67.3 65.8 60.5 64 L 60.5 63 L 68 63 L 68.5 56 Z " /><path fill="rgb(33,185,236)" stroke="rgb(33,185,236)" stroke-width="1" opacity="0.5411764705882353" d="M 22.5 57 L 23.5 59 L 22.5 57 Z " /><path fill="rgb(33,185,236)" stroke="rgb(33,185,236)" stroke-width="1" opacity="0.5411764705882353" d="M 8.5 58 L 10 58.5 L 7.5 60 L 8.5 58 Z " /><path fill="rgb(33,185,236)" stroke="rgb(33,185,236)" stroke-width="1" opacity="0.5411764705882353" d="M 7.5 64 L 15 65.5 L 8.5 66 L 7.5 64 Z " /><path fill="rgb(34,183,235)" stroke="rgb(34,183,235)" stroke-width="1" opacity="0.8980392156862745" d="M 0.5 42 L 1 69.5 L 0 69.5 L 0.5 42 Z " /><path fill="rgb(34,183,235)" stroke="rgb(34,183,235)" stroke-width="1" opacity="0.8980392156862745" d="M 36.5 47 L 37 69.5 L 36 69.5 L 36.5 47 Z " /><path fill="rgb(34,184,235)" stroke="rgb(34,184,235)" stroke-width="1" opacity="1" d="M 69.5 55 Q 75.5 53.5 77 56.5 L 76.5 63 L 76 56 L 69.5 56 L 69.5 55 Z " /><path fill="rgb(34,184,235)" stroke="rgb(34,184,235)" stroke-width="1" opacity="1" d="M 69.5 57 L 75 57.5 L 69.5 58 L 69.5 57 Z " /><path fill="rgb(34,185,236)" stroke="rgb(34,185,236)" stroke-width="1" opacity="1" d="M 30.5 37 Q 35.8 35.8 37 38.5 Q 37.8 43.3 34.5 44 Q 29.8 44.8 29 41.5 Q 28.3 37.8 30.5 37 Z " /><path fill="rgb(34,185,236)" stroke="rgb(34,185,236)" stroke-width="1" opacity="1" d="M 0.5 41 L 17.5 41 L 23 44.5 L 24 50.5 L 21.5 54 L 19 55.5 Q 18.2 58.1 21.5 57 Q 25.8 58.8 24 66.5 L 23 69 L 18.5 71 L 0.5 71 L 1 69.5 L 1 42.5 L 0.5 41 Z M 7 46 L 7 54 L 16 53 Q 18 52 17 49 L 15 46 L 7 46 Z M 7 58 L 7 66 L 16 66 L 18 64 L 17 59 Q 14 57 7 58 Z " /><path fill="rgb(34,185,236)" stroke="rgb(34,185,236)" stroke-width="1" opacity="1" d="M 44 41 L 51 41 L 51 47 L 56 47 L 56 53 L 51 53 L 51 64.5 Q 52.2 67 56 66 L 56 71 L 48.5 71 L 45 68.5 L 44 66.5 L 44 53 L 41 53 L 41 47 L 44 47 L 44 41 Z " /><path fill="rgb(34,185,236)" stroke="rgb(34,185,236)" stroke-width="1" opacity="1" d="M 30 47 L 35.5 47 L 36 47.5 L 36 69.5 L 36.5 71 Q 30.3 71.8 30 70.5 L 30 47 Z " /><path fill="rgb(34,185,236)" stroke="rgb(34,185,236)" stroke-width="1" opacity="1" d="M 61 47 L 67 47 L 67 55 L 61 55 L 61 47 Z " /><path fill="rgb(34,185,236)" stroke="rgb(34,185,236)" stroke-width="1" opacity="1" d="M 69 58 L 75 58 L 75 62 L 69 62 L 69 58 Z " /><path fill="rgb(34,185,236)" stroke="rgb(34,185,236)" stroke-width="1" opacity="1" d="M 61 64 L 67 64 L 67 71 L 61 71 L 61 64 Z " /></svg>